C:\Users\movea\Dropbox\PhDWork\ExperimentalData\subject9\100\P9S100W03_filtered35.mot
nRows=16
nColumns=28

name C:\Users\movea\Dropbox\PhDWork\ExperimentalData\subject9\100\P9S100W03_filtered35.mot
datacolumns 28
datarows 16
range 0.6720000000 0.6870000000
endheader
time	ground_force_1_vx	ground_force_1_vy	ground_force_1_vz	ground_force_1_px	ground_force_1_py	ground_force_1_pz	ground_moment_1_mx	ground_moment_1_my	ground_moment_1_mz	ground_force_2_vx	ground_force_2_vy	ground_force_2_vz	ground_force_2_px	ground_force_2_py	ground_force_2_pz	ground_moment_2_mx	ground_moment_2_my	ground_moment_2_mz	ground_force_3_vx	ground_force_3_vy	ground_force_3_vz	ground_force_3_px	ground_force_3_py	ground_force_3_pz	ground_moment_3_mx	ground_moment_3_my	ground_moment_3_mz
        0.6720000000	      -41.5881531232	      792.4958231776	       69.8176715714	        0.1988394961	        0.0000558755	       -0.3004071324	       67.2930051240	       -7.5292102975	       75.9192514050	        0.0000000063	        0.0000000000	        0.0000000033	        0.2029003516	       -0.0000795827	        0.4543649445	       -0.0000000064	       -0.0000000011	        0.0000000009	       -0.0000000000	        0.0000000000	       -0.0000000000	        0.2076431971	        0.0000770316	        1.3583900146	        0.0000000000	        0.0000000000	        0.0000000000	
        0.6730000000	      -41.6021800077	      794.2802610882	       70.5099903721	        0.1988394961	        0.0000558755	       -0.3004071324	       67.1082205763	       -7.6244525657	       76.1037702947	        0.0000000059	        0.0000000047	        0.0000000052	        0.2029003516	       -0.0000795827	        0.4543649445	       -0.0000000000	       -0.0000000007	       -0.0000000000	       -0.0000000000	        0.0000000000	       -0.0000000000	        0.2076431971	        0.0000770316	        1.3583900146	        0.0000000000	        0.0000000000	        0.0000000000	
        0.6740000000	      -41.6049884285	      796.1299351298	       71.2123980820	        0.1988394961	        0.0000558755	       -0.3004071324	       66.9356563448	       -7.7220711999	       76.2917660054	        0.0000000048	        0.0000000392	        0.0000000074	        0.2029003516	       -0.0000795827	        0.4543649445	        0.0000000094	       -0.0000000000	       -0.0000000014	       -0.0000000000	        0.0000000000	       -0.0000000000	        0.2076431971	        0.0000770316	        1.3583900146	        0.0000000000	        0.0000000000	        0.0000000000	
        0.6750000000	      -41.5934733101	      798.0520432252	       71.9292209352	        0.1988394961	        0.0000558755	       -0.3004071324	       66.7771348998	       -7.8224694992	       76.4829060765	        0.0000000028	        0.0000000865	        0.0000000100	        0.2029003516	       -0.0000795827	        0.4543649445	        0.0000000224	        0.0000000010	       -0.0000000032	       -0.0000000000	        0.0000000000	       -0.0000000000	        0.2076431971	        0.0000770316	        1.3583900146	        0.0000000000	        0.0000000000	        0.0000000000	
        0.6760000000	      -41.5649403424	      800.0511055976	       72.6649973943	        0.1988394961	        0.0000558755	       -0.3004071324	       66.6344735908	       -7.9259240102	       76.6768027218	       -0.0000000005	        0.0000001482	        0.0000000128	        0.2029003516	       -0.0000795827	        0.4543649445	        0.0000000394	        0.0000000025	       -0.0000000056	        0.0000000000	        0.0000000000	       -0.0000000000	        0.2076431971	        0.0000770316	        1.3583900146	        0.0000000000	        0.0000000000	        0.0000000000	
        0.6770000000	      -41.5184388012	      802.1302298013	       73.4244610547	        0.1988394961	        0.0000558755	       -0.3004071324	       66.5091464989	       -8.0327023574	       76.8730934834	       -0.0000000052	        0.0000002254	        0.0000000159	        0.2029003516	       -0.0000795827	        0.4543649445	        0.0000000609	        0.0000000043	       -0.0000000086	        0.0000000000	        0.0000000000	       -0.0000000000	        0.2076431971	        0.0000770316	        1.3583900146	       -0.0000000000	        0.0000000000	       -0.0000000000	
        0.6780000000	      -41.4547578235	      804.2915516285	       74.2121168314	        0.1988394961	        0.0000558755	       -0.3004071324	       66.4020296242	       -8.1431431640	       77.0713401146	       -0.0000000117	        0.0000003184	        0.0000000190	        0.2029003516	       -0.0000795827	        0.4543649445	        0.0000000870	        0.0000000067	       -0.0000000123	        0.0000000000	        0.0000000000	       -0.0000000000	        0.2076431971	        0.0000770316	        1.3583900146	       -0.0000000000	        0.0000000000	       -0.0000000000	
        0.6790000000	      -41.3760445774	      806.5344254915	       75.0314538682	        0.1988394961	        0.0000558755	       -0.3004071324	       66.3132386271	       -8.2574541846	       77.2709888002	       -0.0000000202	        0.0000004259	        0.0000000217	        0.2029003516	       -0.0000795827	        0.4543649445	        0.0000001173	        0.0000000096	       -0.0000000165	        0.0000000000	        0.0000000000	        0.0000000000	        0.2076431971	        0.0000770316	        1.3583900146	       -0.0000000000	       -0.0000000000	       -0.0000000000	
        0.6800000000	      -41.2857711716	      808.8549372174	       75.8844485722	        0.1988394961	        0.0000558755	       -0.3004071324	       66.2419275170	       -8.3755433429	       77.4714078078	       -0.0000000309	        0.0000005451	        0.0000000238	        0.2029003516	       -0.0000795827	        0.4543649445	        0.0000001512	        0.0000000129	       -0.0000000213	        0.0000000000	        0.0000000000	        0.0000000000	        0.2076431971	        0.0000770316	        1.3583900146	       -0.0000000000	       -0.0000000000	       -0.0000000000	
        0.6810000000	      -41.1884317847	      811.2462333851	       76.7716248538	        0.1988394961	        0.0000558755	       -0.3004071324	       66.1862869840	       -8.4971238433	       77.6719791045	       -0.0000000438	        0.0000006703	        0.0000000246	        0.2029003516	       -0.0000795827	        0.4543649445	        0.0000001872	        0.0000000166	       -0.0000000263	        0.0000000000	        0.0000000000	        0.0000000000	        0.2076431971	        0.0000770316	        1.3583900146	       -0.0000000000	       -0.0000000000	       -0.0000000000	
        0.6820000000	      -41.0888237546	      813.6981544783	       77.6924349280	        0.1988394961	        0.0000558755	       -0.3004071324	       66.1439544786	       -8.6218850053	       77.8723348995	       -0.0000000587	        0.0000007929	        0.0000000236	        0.2029003516	       -0.0000795827	        0.4543649445	        0.0000002229	        0.0000000206	       -0.0000000312	        0.0000000000	        0.0000000000	        0.0000000000	        0.2076431971	        0.0000770316	        1.3583900146	       -0.0000000000	       -0.0000000000	       -0.0000000000	
        0.6830000000	      -40.9916235467	      816.1981300651	       78.6455747462	        0.1988394961	        0.0000558755	       -0.3004071324	       66.1125571401	       -8.7495285507	       78.0724518873	       -0.0000000753	        0.0000009003	        0.0000000198	        0.2029003516	       -0.0000795827	        0.4543649445	        0.0000002549	        0.0000000245	       -0.0000000357	        0.0000000000	        0.0000000000	        0.0000000000	        0.2076431971	        0.0000770316	        1.3583900146	       -0.0000000000	       -0.0000000000	       -0.0000000000	
        0.6840000000	      -40.9013594000	      818.7330084831	       79.6289802543	        0.1988394961	        0.0000558755	       -0.3004071324	       66.0900170092	       -8.8796588784	       78.2724676379	       -0.0000000927	        0.0000009754	        0.0000000125	        0.2029003516	       -0.0000795827	        0.4543649445	        0.0000002785	        0.0000000280	       -0.0000000389	        0.0000000000	        0.0000000000	        0.0000000000	        0.2076431971	        0.0000770316	        1.3583900146	       -0.0000000000	       -0.0000000000	       -0.0000000000	
        0.6850000000	      -40.8220828609	      821.2893315829	       80.6397338035	        0.1988394961	        0.0000558755	       -0.3004071324	       66.0746173595	       -9.0117108234	       78.4725495823	       -0.0000001099	        0.0000009960	        0.0000000006	        0.2029003516	       -0.0000795827	        0.4543649445	        0.0000002876	        0.0000000306	       -0.0000000400	        0.0000000000	        0.0000000000	        0.0000000000	        0.2076431971	        0.0000770316	        1.3583900146	       -0.0000000000	       -0.0000000000	       -0.0000000000	
        0.6860000000	      -40.7564892553	      823.8518743405	       81.6742449521	        0.1988394961	        0.0000558755	       -0.3004071324	       66.0650329002	       -9.1449845064	       78.6728025162	       -0.0000001250	        0.0000009344	       -0.0000000171	        0.2029003516	       -0.0000795827	        0.4543649445	        0.0000002744	        0.0000000316	       -0.0000000380	        0.0000000000	        0.0000000000	        0.0000000000	        0.2076431971	        0.0000770316	        1.3583900146	       -0.0000000000	       -0.0000000000	       -0.0000000000	
        0.6870000000	      -40.7054536009	      826.4034718064	       82.7288228747	        0.1988394961	        0.0000558755	       -0.3004071324	       66.0602691776	       -9.2786224452	       78.8730747325	       -0.0000001358	        0.0000007574	       -0.0000000415	        0.2029003516	       -0.0000795827	        0.4543649445	        0.0000002297	        0.0000000302	       -0.0000000316	        0.0000000000	        0.0000000000	        0.0000000000	        0.2076431971	        0.0000770316	        1.3583900146	       -0.0000000000	       -0.0000000000	       -0.0000000000	
